<svg xmlns="http://www.w3.org/2000/svg" viewBox="0 0 24 24">
  <defs>
    <style>
      .cls-1 {
        fill: #fff;
        opacity: 0.5;
      }

      .cls-2 {
        fill: none;
      }
    </style>
  </defs>
  <g id="ic_courses_24px" transform="translate(-16 -100)">
    <path id="ic_assignment_24px" class="cls-1" d="M19,3H14.82A2.988,2.988,0,0,0,9.18,3H5A2.006,2.006,0,0,0,3,5V19a2.006,2.006,0,0,0,2,2H19a2.006,2.006,0,0,0,2-2V5A2.006,2.006,0,0,0,19,3ZM12,3a1,1,0,1,1-1,1A1,1,0,0,1,12,3Zm2,14H7V15h7Zm3-4H7V11H17Zm0-4H7V7H17Z" transform="translate(16 101)"/>
    <rect id="Rectangle_1989" data-name="Rectangle 1989" class="cls-2" width="24" height="24" transform="translate(16 100)"/>
  </g>
</svg>
