<svg xmlns="http://www.w3.org/2000/svg" viewBox="0 0 24 24">
  <defs>
    <style>
      .cls-1 {
        opacity: 0.4;
      }

      .cls-2 {
        fill: none;
      }
    </style>
  </defs>
  <g id="ic_exit_24px" transform="translate(-1358 -27)">
    <path id="ic_exit_to_app_24px" class="cls-1" d="M10.09,15.59,11.5,17l5-5-5-5L10.09,8.41,12.67,11H3v2h9.67ZM19,3H5A2,2,0,0,0,3,5V9H5V5H19V19H5V15H3v4a2,2,0,0,0,2,2H19a2.006,2.006,0,0,0,2-2V5A2.006,2.006,0,0,0,19,3Z" transform="translate(1358 27)"/>
    <rect id="Rectangle_2007" data-name="Rectangle 2007" class="cls-2" width="24" height="24" transform="translate(1358 27)"/>
  </g>
</svg>
