<svg xmlns="http://www.w3.org/2000/svg" viewBox="0 0 24 24">
  <defs>
    <style>
      .cls-1 {
        fill: #fff;
        opacity: 0.5;
      }

      .cls-2 {
        fill: none;
      }
    </style>
  </defs>
  <g id="ic_shopping_basket_24px" transform="translate(-16 -652)">
    <path id="ic_shopping_basket_24px-2" data-name="ic_shopping_basket_24px" class="cls-1" d="M17.21,9,12.83,2.44A.993.993,0,0,0,12,2.02a.977.977,0,0,0-.83.43L6.79,9H2a1,1,0,0,0-1,1,.842.842,0,0,0,.04.27l2.54,9.27A1.989,1.989,0,0,0,5.5,21h13a2.01,2.01,0,0,0,1.93-1.46l2.54-9.27L23,10a1,1,0,0,0-1-1ZM9,9l3-4.4L15,9Zm3,8a2,2,0,1,1,2-2A2.006,2.006,0,0,1,12,17Z" transform="translate(16 652.98)"/>
    <rect id="Rectangle_1998" data-name="Rectangle 1998" class="cls-2" width="24" height="24" transform="translate(16 652)"/>
  </g>
</svg>
