<svg xmlns="http://www.w3.org/2000/svg" viewBox="0 0 24 24">
  <defs>
    <style>
      .cls-1 {
        fill: none;
      }

      .cls-2 {
        fill: #fff;
        opacity: 0.5;
      }
    </style>
  </defs>
  <g id="ic_user_24px" transform="translate(-16 -243)">
    <rect id="Rectangle_1992" data-name="Rectangle 1992" class="cls-1" width="24" height="24" transform="translate(16 243)"/>
    <path id="Path_2221" data-name="Path 2221" class="cls-2" d="M14.873,21a.248.248,0,0,1-.249-.21l-.19-1.32a3.412,3.412,0,0,1-.851-.49l-1.24.5a.253.253,0,0,1-.31-.11l-1-1.73a.26.26,0,0,1,.059-.32l1.06-.83a4.058,4.058,0,0,1,0-.98l-1.06-.83a.247.247,0,0,1-.059-.319l1-1.731a.262.262,0,0,1,.31-.11l1.24.5a3.98,3.98,0,0,1,.851-.49l.19-1.319A.256.256,0,0,1,14.873,11h2a.238.238,0,0,1,.239.211l.19,1.319a3.415,3.415,0,0,1,.851.49l1.24-.5a.254.254,0,0,1,.31.11l1,1.731a.259.259,0,0,1-.059.319l-1.06.83a2.66,2.66,0,0,1,.04.49,3.92,3.92,0,0,1-.04.49l1.07.83a.26.26,0,0,1,.059.32l-1,1.73a.261.261,0,0,1-.31.11l-1.25-.5a3.7,3.7,0,0,1-.84.49l-.191,1.32a.256.256,0,0,1-.249.21Zm-.5-5a1.5,1.5,0,1,0,1.5-1.5A1.5,1.5,0,0,0,14.374,16ZM9.289,18H2a2,2,0,0,1-2-2V2A2,2,0,0,1,2,0H16a2,2,0,0,1,2,2V9.29A7.016,7.016,0,0,0,16,9a6.942,6.942,0,0,0-5.039,2.141A9.478,9.478,0,0,0,9,10.9a10.7,10.7,0,0,0-3.75.8C4.224,12.131,3,12.88,3,14v1H9.071A7.068,7.068,0,0,0,9,16a6.992,6.992,0,0,0,.29,2h0ZM6,6A3,3,0,1,0,9,3,3,3,0,0,0,6,6Z" transform="translate(18 244)"/>
  </g>
</svg>
