<svg xmlns="http://www.w3.org/2000/svg" viewBox="0 0 24 24">
  <defs>
    <style>
      .cls-1 {
        fill: #fff;
        opacity: 0.5;
      }

      .cls-2 {
        fill: none;
      }
    </style>
  </defs>
  <g id="ic_event_24px" transform="translate(-16 -196)">
    <path id="ic_date_range_24px" class="cls-1" d="M9,11H7v2H9Zm4,0H11v2h2Zm4,0H15v2h2Zm2-7H18V2H16V4H8V2H6V4H5A1.991,1.991,0,0,0,3.01,6L3,20a2,2,0,0,0,2,2H19a2.006,2.006,0,0,0,2-2V6A2.006,2.006,0,0,0,19,4Zm0,16H5V9H19Z" transform="translate(16 196)"/>
    <rect id="Rectangle_1991" data-name="Rectangle 1991" class="cls-2" width="24" height="24" transform="translate(16 196)"/>
  </g>
</svg>
