<?xml version="1.0" encoding="utf-8"?>
<!-- Generator: Adobe Illustrator 21.1.0, SVG Export Plug-In . SVG Version: 6.00 Build 0)  -->
<svg version="1.1" id="Layer_1" xmlns="http://www.w3.org/2000/svg" xmlns:xlink="http://www.w3.org/1999/xlink" x="0px" y="0px"
	 viewBox="0 0 24 24" style="enable-background:new 0 0 24 24;" xml:space="preserve">
<style type="text/css">
	.st0{opacity:0.5;fill:#FFFFFF;enable-background:new    ;}
</style>
<path id="Path_2221" class="st0" d="M16.9,22c-0.1,0-0.2-0.1-0.2-0.2l-0.2-1.3c-0.3-0.1-0.6-0.3-0.9-0.5l-1.2,0.5
	c-0.1,0-0.2,0-0.3-0.1l-1-1.7c-0.1-0.1,0-0.2,0.1-0.3l1.1-0.8c0-0.3,0-0.7,0-1l-1.1-0.8C13,15.6,13,15.5,13,15.4l1-1.7
	c0.1-0.1,0.2-0.2,0.3-0.1l1.2,0.5c0.3-0.2,0.5-0.4,0.9-0.5l0.2-1.3c0-0.1,0.1-0.2,0.2-0.2h2c0.1,0,0.2,0.1,0.2,0.2l0.2,1.3
	c0.3,0.1,0.6,0.3,0.9,0.5l1.2-0.5c0.1,0,0.2,0,0.3,0.1l1,1.7c0.1,0.1,0,0.2-0.1,0.3l-1.1,0.8c0,0.2,0,0.3,0,0.5c0,0.2,0,0.3,0,0.5
	l1.1,0.8c0.1,0.1,0.1,0.2,0.1,0.3l-1,1.7c-0.1,0.1-0.2,0.2-0.3,0.1L20.2,20c-0.3,0.2-0.5,0.4-0.8,0.5l-0.2,1.3
	c0,0.1-0.1,0.2-0.2,0.2L16.9,22z M16.4,17c0,0.8,0.7,1.5,1.5,1.5c0.8,0,1.5-0.7,1.5-1.5c0-0.8-0.7-1.5-1.5-1.5
	C17,15.5,16.4,16.2,16.4,17L16.4,17z M11.3,19H4c-1.1,0-2-0.9-2-2V3c0-1.1,0.9-2,2-2h14c1.1,0,2,0.9,2,2v7.3c-0.6-0.2-1.3-0.3-2-0.3
	c-1.9,0-3.7,0.8-5,2.1c-0.6-0.1-1.3-0.2-2-0.2c-1.3,0-2.6,0.3-3.8,0.8C6.2,13.1,5,13.9,5,15v1h6.1c0,0.3-0.1,0.7-0.1,1
	C11,17.7,11.1,18.4,11.3,19L11.3,19L11.3,19z M8,7c0,1.7,1.3,3,3,3s3-1.3,3-3s-1.3-3-3-3S8,5.3,8,7z"/>
</svg>
