<svg xmlns="http://www.w3.org/2000/svg" viewBox="0 0 18 18">
  <g id="instagram" transform="translate(-764.25 -2773)">
    <path id="Path_2" data-name="Path 2" d="M12.638,0H5.362A5.368,5.368,0,0,0,0,5.362v7.275A5.368,5.368,0,0,0,5.362,18h7.275A5.368,5.368,0,0,0,18,12.638V5.362A5.368,5.368,0,0,0,12.638,0Zm3.551,12.638a3.552,3.552,0,0,1-3.551,3.551H5.362a3.552,3.552,0,0,1-3.551-3.551V5.362A3.551,3.551,0,0,1,5.362,1.811h7.275a3.551,3.551,0,0,1,3.551,3.551v7.275Z" transform="translate(764.25 2773)"/>
    <path id="Path_3" data-name="Path 3" d="M137.655,133a4.655,4.655,0,1,0,4.655,4.655A4.661,4.661,0,0,0,137.655,133Zm0,7.5a2.845,2.845,0,1,1,2.845-2.845A2.845,2.845,0,0,1,137.655,140.5Z" transform="translate(635.595 2644.344)"/>
    <circle id="Ellipse_3" data-name="Ellipse 3" cx="1.116" cy="1.116" r="1.116" transform="translate(776.799 2776.264)"/>
  </g>
</svg>
