<svg xmlns="http://www.w3.org/2000/svg" viewBox="0 0 26.291 15">
  <g id="vk-logo" transform="translate(-808.5 -2774.5)">
    <path id="Path_7" data-name="Path 7" d="M26.151,131.3a1.8,1.8,0,0,0-.089-.171,13.626,13.626,0,0,0-2.614-3.025l-.027-.027-.014-.013-.014-.014h-.014q-.876-.835-1.109-1.123a1.054,1.054,0,0,1-.192-1.109,10.335,10.335,0,0,1,1.232-1.793q.561-.726.89-1.163,2.368-3.148,2.053-4.024l-.082-.137a.8.8,0,0,0-.424-.226,2.155,2.155,0,0,0-.876-.034l-3.942.027a.512.512,0,0,0-.274.007l-.178.041-.069.034-.054.041a.608.608,0,0,0-.151.144.939.939,0,0,0-.137.24,22.351,22.351,0,0,1-1.465,3.08q-.507.849-.931,1.472a7.081,7.081,0,0,1-.712.917,4.964,4.964,0,0,1-.52.472q-.233.178-.356.151l-.233-.055a.91.91,0,0,1-.308-.335,1.5,1.5,0,0,1-.157-.534q-.041-.322-.048-.554t.007-.657q.014-.425.014-.575,0-.52.02-1.129t.034-.965q.014-.356.014-.753a3.163,3.163,0,0,0-.048-.623,2.131,2.131,0,0,0-.143-.438.738.738,0,0,0-.281-.329,1.582,1.582,0,0,0-.459-.185,9.109,9.109,0,0,0-1.848-.178,8.98,8.98,0,0,0-3.272.329,1.844,1.844,0,0,0-.52.41q-.246.3-.069.328a1.678,1.678,0,0,1,1.163.589l.082.164a2.619,2.619,0,0,1,.192.63,6.353,6.353,0,0,1,.123,1,10.655,10.655,0,0,1,0,1.711q-.069.712-.13,1.109a2.22,2.22,0,0,1-.185.643,2.714,2.714,0,0,1-.164.3.235.235,0,0,1-.068.068,1.026,1.026,0,0,1-.37.069.867.867,0,0,1-.465-.192,3.283,3.283,0,0,1-.568-.527,7.044,7.044,0,0,1-.664-.938q-.369-.6-.766-1.424l-.219-.4q-.205-.383-.561-1.116t-.63-1.417a.9.9,0,0,0-.328-.438l-.069-.041a.936.936,0,0,0-.219-.116,1.453,1.453,0,0,0-.315-.089l-3.751.027a.953.953,0,0,0-.78.26l-.055.082A.443.443,0,0,0,0,119a1.09,1.09,0,0,0,.082.369q.821,1.93,1.786,3.723t1.677,2.888q.712,1.1,1.451,2.067t.979,1.246q.24.274.377.411l.342.328a8.121,8.121,0,0,0,.965.787,16.464,16.464,0,0,0,1.41.9,7.649,7.649,0,0,0,1.8.725,6.224,6.224,0,0,0,2,.226h1.574a1.09,1.09,0,0,0,.726-.3l.054-.069a.907.907,0,0,0,.1-.253,1.39,1.39,0,0,0,.048-.376,4.51,4.51,0,0,1,.089-1.061,2.789,2.789,0,0,1,.233-.712,1.749,1.749,0,0,1,.294-.4,1.188,1.188,0,0,1,.233-.2.9.9,0,0,1,.109-.048.869.869,0,0,1,.774.212,4.544,4.544,0,0,1,.835.794q.39.472.938,1.061a6.444,6.444,0,0,0,.958.876l.274.164a3.333,3.333,0,0,0,.712.3,1.534,1.534,0,0,0,.766.068l3.5-.055a1.588,1.588,0,0,0,.808-.171.678.678,0,0,0,.342-.376,1.06,1.06,0,0,0,.007-.466A1.718,1.718,0,0,0,26.151,131.3Z" transform="translate(808.5 2656.752)"/>
  </g>
</svg>
