<svg xmlns="http://www.w3.org/2000/svg" viewBox="0 0 21.818 15">
  <g id="youtube" transform="translate(-860.25 -2774.5)">
    <g id="Group_15" data-name="Group 15" transform="translate(860.25 2774.5)">
      <path id="Path_8" data-name="Path 8" d="M20.891,81.445c-.592-1.053-1.234-1.246-2.542-1.32C17.043,80.037,13.758,80,10.912,80s-6.138.037-7.443.124S1.52,80.391.923,81.445,0,84.308,0,87.5v.011c0,3.175.314,5,.923,6.04s1.24,1.244,2.545,1.332S8.06,95,10.912,95s6.131-.045,7.439-.12,1.95-.28,2.542-1.332c.615-1.04.926-2.865.926-6.04V87.5C21.818,84.308,21.507,82.5,20.891,81.445ZM8.182,91.591V83.409L15,87.5Z" transform="translate(0 -80)"/>
    </g>
  </g>
</svg>
